<?xml version="1.0" encoding="iso-8859-1"?>
<!-- Uploaded to: SVG Repo, www.svgrepo.com, Generator: SVG Repo Mixer Tools -->
<svg height="800px" width="800px" version="1.1" id="Layer_1" xmlns="http://www.w3.org/2000/svg" xmlns:xlink="http://www.w3.org/1999/xlink" 
	 viewBox="0 0 512 512" xml:space="preserve">
<polygon style="fill:#EDC272;" points="301.811,214.164 301.811,277.748 301.811,292.382 361.095,292.382 361.095,237.891 
	361.095,156.466 "/>
<polygon style="fill:#EABB71;" points="329.185,214.164 361.095,183.107 361.095,156.466 301.811,214.164 301.811,277.748 
	301.811,292.382 329.185,292.382 329.185,277.748 "/>
<path style="fill:#EDC272;" d="M396.126,136.084c-16.345,0-29.642,13.298-29.642,29.642v73.08v136.932h59.284V261.621v-95.895
	C425.768,149.382,412.471,136.084,396.126,136.084z"/>
<path style="fill:#EABB71;" d="M393.858,165.726c0-11.408,6.484-21.326,15.955-26.28c-4.098-2.143-8.751-3.362-13.687-3.362
	c-16.345,0-29.642,13.298-29.642,29.642v73.08v136.932h27.374V238.806V165.726z"/>
<g>
	<path style="fill:#EDC272;" d="M150.089,138.153l0.758,25.62c0.036,0.647,0.058,1.297,0.058,1.953v72.165v39.857l59.284,30.691
		v-30.691v-81.282L150.089,138.153z"/>
	<path style="fill:#EDC272;" d="M115.874,136.084c-16.345,0-29.642,13.298-29.642,29.642v95.895v72.87h59.284v-95.686v-73.079
		C145.516,149.382,132.219,136.084,115.874,136.084z"/>
</g>
<g>
	<path style="fill:#EABB71;" d="M178.279,277.748v-39.857v-72.165c0-0.077-0.006-0.151-0.006-0.227l-28.183-27.345l0.758,25.62
		c0.036,0.647,0.058,1.297,0.058,1.953v72.165v39.857l59.284,30.691v-14.171L178.279,277.748z"/>
	<path style="fill:#EABB71;" d="M113.606,165.726c0-11.408,6.484-21.326,15.955-26.28c-4.098-2.143-8.751-3.362-13.687-3.362
		c-16.345,0-29.642,13.298-29.642,29.642v95.895v72.87h27.374v-72.87C113.606,261.621,113.606,165.726,113.606,165.726z"/>
</g>
<g>
	<path style="fill:#EFCA83;" d="M258.695,486.399V346.584c0-11.647,4.534-22.596,12.763-30.833l29.278-29.304l0.141-0.122
		c0.096-0.084,0.185-0.172,0.265-0.265l0.126-0.146l32.298-32.326c6.521-6.527,15.179-10.12,24.379-10.12
		c1.139,0,2.293,0.057,3.43,0.169c10.331,1.02,19.561,6.561,25.321,15.202l0.522,0.783c9.152,13.728,7.614,32.317-3.656,44.203
		l-43.235,43.238c-1.051,1.052-1.051,2.762,0,3.813c0.686,0.686,1.489,0.787,1.906,0.787s1.219-0.102,1.906-0.788l2.667-2.667
		c6.733-6.733,24.947-24.945,39.909-39.895c0.204-0.203,0.65-0.664,0.65-0.664l43.006-43.005c0.509-0.51,0.789-1.187,0.789-1.907
		V127.999c0-19.317,15.716-35.032,35.032-35.032s35.032,15.715,35.032,35.032v180.279c0,11.371-4.952,22.137-13.585,29.535
		l-44.752,38.359c-10.877,9.324-17.116,22.888-17.116,37.214v48.833c0,13.332-10.847,24.18-24.179,24.18H258.695V486.399z"/>
	<path style="fill:#EFCA83;" d="M110.411,486.399c-13.332,0-24.179-10.847-24.179-24.18v-48.833
		c0-14.326-6.239-27.891-17.116-37.213l-44.752-38.359c-8.633-7.399-13.585-18.165-13.585-29.535V127.999
		c0-19.317,15.716-35.032,35.032-35.032s35.032,15.715,35.032,35.032v134.737c0,0.72,0.28,1.397,0.79,1.907l43.04,43.042
		c0.203,0.211,0.409,0.423,0.617,0.631c14.862,14.849,32.936,32.921,39.773,39.758l2.8,2.801c0.686,0.686,1.489,0.787,1.906,0.787
		c0.417,0,1.219-0.102,1.906-0.788c1.05-1.051,1.05-2.76,0-3.811l-43.235-43.237c-11.27-11.886-12.809-30.474-3.658-44.201
		l0.524-0.786c5.76-8.64,14.989-14.18,25.322-15.2c1.135-0.112,2.288-0.169,3.426-0.169c9.203,0,17.861,3.594,24.381,10.12
		l32.298,32.326l0.126,0.146c0.08,0.093,0.169,0.181,0.265,0.265l0.141,0.122l29.278,29.304
		c8.231,8.238,12.763,19.188,12.763,30.833v139.814H110.411z"/>
</g>
<path style="fill:#FF6342;" d="M139.704,168.187c-32.9-32.952-32.879-86.548,0.046-119.475
	c15.946-15.947,37.185-24.729,59.803-24.729c22.5,0.013,43.598,8.674,59.519,24.399c15.921-15.725,36.953-24.386,59.289-24.399
	c22.55,0,43.724,8.782,59.67,24.729c32.929,32.929,32.948,86.526,0.043,119.479L264.451,278.775
	c-2.994,2.915-7.765,2.918-10.764,0.009L139.704,168.187z"/>
<g>
	<path style="fill:#EABB71;" d="M298.832,315.75l29.278-29.304l0.141-0.122c0.096-0.084,0.185-0.172,0.265-0.265l0.126-0.146
		l32.298-32.326c3.133-3.136,6.764-5.587,10.707-7.295c-3.226-1.388-6.68-2.301-10.272-2.656c-1.137-0.112-2.291-0.169-3.43-0.169
		c-9.201,0-17.857,3.594-24.379,10.12l-32.298,32.326l-0.126,0.146c-0.08,0.093-0.169,0.181-0.265,0.265l-0.141,0.122
		l-29.278,29.304c-8.23,8.237-12.763,19.187-12.763,30.833v139.816h27.374V346.584C286.069,334.937,290.602,323.988,298.832,315.75z
		"/>
	<path style="fill:#EABB71;" d="M113.606,462.219v-48.833c0-14.326-6.239-27.891-17.116-37.213l-44.752-38.359
		c-8.633-7.399-13.585-18.166-13.585-29.535V127.999c0-14.462,8.811-26.904,21.344-32.245c-4.207-1.793-8.833-2.786-13.687-2.786
		c-19.316,0-35.032,15.715-35.032,35.032v180.279c0,11.371,4.952,22.137,13.585,29.535l44.752,38.359
		c10.877,9.324,17.116,22.888,17.116,37.214v48.833c0,13.332,10.847,24.18,24.179,24.18h27.374
		C124.453,486.399,113.606,475.553,113.606,462.219z"/>
</g>
<path style="fill:#FE5025;" d="M167.078,168.187c-32.9-32.952-32.879-86.548,0.046-119.475
	c12.677-12.678,28.704-20.808,46.105-23.617c-4.48-0.721-9.046-1.11-13.676-1.113c-22.617,0-43.856,8.782-59.803,24.729
	c-32.925,32.926-32.946,86.523-0.046,119.475l113.982,110.597c2.999,2.91,7.769,2.907,10.764-0.009l8.288-8.067L167.078,168.187z"/>
<path d="M466.189,82.189c-25.26,0-45.811,20.55-45.811,45.811v5.423c-3.683-2.771-7.851-4.929-12.355-6.32
	c6.665-29.767-1.538-62.223-24.658-85.343c-17.375-17.374-40.438-26.939-64.956-26.939h-0.053
	c-21.928,0.013-42.702,7.674-59.285,21.724c-16.595-14.05-37.432-21.712-59.464-21.724h-0.054c-24.633,0-47.765,9.566-65.138,26.939
	c-22.788,22.788-31.085,54.644-24.939,84.056c-6.623,1.057-12.713,3.727-17.855,7.596v-5.413c0-25.26-20.55-45.811-45.811-45.811
	S0,102.739,0,127.999v180.279c0,14.522,6.324,28.271,17.349,37.72l44.752,38.359c8.485,7.274,13.352,17.854,13.352,29.03v48.833
	c0,19.277,15.682,34.959,34.958,34.959h291.178c19.276,0,34.958-15.682,34.958-34.959v-48.833c0-11.176,4.867-21.756,13.352-29.03
	l44.752-38.359c11.025-9.449,17.349-23.197,17.349-37.72V127.999C512,102.739,491.45,82.189,466.189,82.189z M145.848,53.194
	c14.321-14.321,33.39-22.205,53.705-22.205h0.044c20.328,0.012,39.42,7.914,53.759,22.253c1.516,1.516,3.572,2.367,5.716,2.367
	c2.144,0,4.201-0.852,5.716-2.367c14.338-14.339,33.365-22.241,53.577-22.253h0.044c20.198,0,39.205,7.884,53.524,22.205
	c29.576,29.576,29.59,77.694,0.039,107.287L259.063,270.369L145.807,160.478C116.26,130.884,116.274,82.768,145.848,53.194z
	 M355.705,198.874v33.885c-11.153,0.549-21.735,5.175-29.764,13.211L307.2,264.727v-18.645L355.705,198.874z M204.8,240.246v24.481
	l-18.741-18.758c-8.029-8.036-18.61-12.663-29.764-13.211v-39.577L204.8,240.246z M91.621,165.726
	c0-12.822,10.003-23.344,22.613-24.191c4.486,11.076,11.213,21.449,20.181,30.417c0.028,0.028,0.057,0.057,0.087,0.085l5.624,5.457
	v57.381c-9.653,3.097-18.041,9.359-23.789,17.983l-0.524,0.786c-4.551,6.825-7.081,14.508-7.667,22.268l-16.526-16.523V165.726z
	 M247.916,481.01H110.411c-10.361,0-18.79-8.429-18.79-18.791v-48.833c0-15.901-6.924-30.957-18.998-41.305l-44.752-38.359
	c-7.437-6.375-11.703-15.648-11.703-25.444V127.999c0-16.344,13.297-29.642,29.642-29.642s29.642,13.298,29.642,29.642v134.737
	c0,2.144,0.852,4.199,2.368,5.717l42.964,42.964c0.229,0.238,0.46,0.474,0.694,0.708c14.863,14.85,32.936,32.922,39.773,39.759
	l2.8,2.8c3.156,3.155,8.275,3.157,11.432,0c3.157-3.158,3.157-8.276,0-11.433l-43.135-43.135
	c-9.59-10.114-10.918-25.753-3.085-37.503l0.524-0.786c4.86-7.29,12.648-11.966,21.367-12.826
	c8.714-0.862,17.271,2.198,23.465,8.397l32.162,32.19c0.248,0.286,0.515,0.553,0.801,0.801l29.145,29.171
	c7.214,7.22,11.186,16.818,11.186,27.024V481.01H247.916z M256,318.034c-2.197-3.549-4.808-6.876-7.833-9.903l-27.199-27.222
	v-24.975l32.474,31.509c1.568,1.521,3.599,2.282,5.63,2.282c2.035,0,4.069-0.764,5.638-2.291l26.321-25.617v19.092l-27.199,27.222
	C260.808,311.159,258.197,314.485,256,318.034z M495.832,308.278c0,9.783-4.275,19.078-11.703,25.444l-44.752,38.359
	c-12.073,10.349-18.998,25.405-18.998,41.306v48.833c0,10.378-8.413,18.79-18.79,18.79H264.084V346.584
	c0-10.207,3.973-19.804,11.186-27.024l29.145-29.171c0.286-0.248,0.553-0.516,0.801-0.801l32.162-32.19
	c6.193-6.198,14.749-9.26,23.465-8.397c8.719,0.861,16.507,5.537,21.368,12.827l0.523,0.785c7.834,11.751,6.506,27.39-3.084,37.503
	l-43.136,43.136c-3.215,3.216-3.156,8.465,0.178,11.606c3.222,3.035,8.364,2.72,11.494-0.412l2.427-2.428
	c6.733-6.731,24.946-24.944,39.907-39.893c0.234-0.234,0.466-0.47,0.694-0.708l42.964-42.963c1.517-1.517,2.368-3.572,2.368-5.717
	v-28.608c0-4.465-3.62-8.084-8.084-8.084l0,0c-4.465,0-8.084,3.62-8.084,8.084v25.26l-16.524,16.524
	c-0.586-7.76-3.117-15.444-7.668-22.269l-0.523-0.785c-5.75-8.624-14.138-14.887-23.79-17.984v-51.737l11.414-11.109
	c0.026-0.026,0.052-0.052,0.078-0.077c8.696-8.696,15.266-18.721,19.749-29.42c9.973,3.01,17.266,12.254,17.266,23.193v29.023
	c0,4.465,3.62,8.084,8.084,8.084l0,0c4.465,0,8.084-3.62,8.084-8.084V128.63c0-16.13,12.622-29.781,28.745-30.26
	c16.753-0.497,30.539,12.986,30.539,29.629V308.278z"/>
</svg>